<svg width="241" height="186" viewBox="0 0 241 186" fill="none" xmlns="http://www.w3.org/2000/svg">
<rect width="241" height="186" fill="#F6F6F6"/>
<g id="Landingpage" clip-path="url(#clip0_1050_2)">
<rect width="1440" height="1506" transform="translate(-847 -375)" fill="white"/>
<g id="Illustration 1">
<path id="Vector 28" d="M46.253 28.6893C57.4599 20.9069 99.1564 6.88878 118.604 0.852539H140.447C153.411 4.06643 182.535 11.7906 195.326 16.976C208.117 22.1614 231.436 52.8665 240.799 67.1264L230.611 86.6335C204.684 112.215 225.574 134.8 239.402 143.154C218.661 143.154 209.73 135.376 207.858 131.487C209.932 143.241 211.603 172.106 212.179 185.07H59.6411V161.51H1.46208C-3.89951 102.848 32.2445 38.4173 46.253 28.6893Z" fill="url(#paint0_linear_1050_2)"/>
<ellipse id="Ellipse 185" cx="131.172" cy="19.3607" rx="25.9725" ry="18.5082" fill="#CF0606"/>
<path id="Vector 27" d="M111.89 17.4497C115.262 -1.93455 114.074 -19.8716 113.547 -26.0608C114.284 -31.855 144.944 -21.0026 159.692 -15.2084C151.37 -10.9945 149.114 10.0753 149.026 20.0834C149.289 23.3756 147.235 30.355 136.911 31.9352C119.634 33.9368 113.032 23.1122 111.89 17.4497Z" fill="url(#paint1_linear_1050_2)"/>
<g id="Mask Group">
<mask id="mask0_1050_2" style="mask-type:alpha" maskUnits="userSpaceOnUse" x="111" y="-28" width="49" height="61">
<path id="Vector 38" d="M111.89 17.4497C115.262 -1.93455 114.074 -19.8716 113.547 -26.0608C114.284 -31.855 144.944 -21.0026 159.692 -15.2084C151.37 -10.9945 149.114 10.0753 149.026 20.0834C149.289 23.3756 147.235 30.355 136.911 31.9352C119.634 33.9368 113.032 23.1122 111.89 17.4497Z" fill="#BABABA"/>
</mask>
<g mask="url(#mask0_1050_2)">
<path id="Vector 37" opacity="0.1" d="M154.589 4.90207C133.826 1.66247 118.433 -16.5917 113.331 -25.3139C125.182 -27.7585 151.828 -31.1811 163.608 -25.3139C175.389 -19.4466 162.504 -2.72521 154.589 4.90207Z" fill="black"/>
</g>
</g>
<path id="Vector 29" d="M1.41271 161.585C7.41201 188.321 43.0385 188.375 60.1019 185.06L191.628 166.058C193.323 167.531 197.384 171.413 200.061 175.165C202.738 178.916 205.192 176.279 206.084 174.491C209.939 178.668 212.777 176.68 213.714 175.165C217.034 179.344 219.827 177.885 220.809 176.633C225.413 180.06 226.576 177.082 226.581 175.165C220.299 161.862 209.029 148.529 204.18 143.525L171.385 146.527L64.8296 135.664C44.6145 121.481 -6.08642 128.165 1.41271 161.585Z" fill="url(#paint2_linear_1050_2)"/>
<path id="Vector 30" d="M256.251 121.133C250.31 140.319 242.12 143.671 238.767 142.949C203.481 119.337 218.633 95.1412 230.62 85.9948L261.865 21.6637C257.341 18.1264 252.301 7.05948 252.818 0.0804749C253.232 -5.50273 257.04 -5.68963 258.892 -5.08517C259.409 -10.8705 263.588 -10.6863 265.613 -9.87107C267.371 -16.178 272.463 -14.8253 274.789 -13.3605C275.099 -22.0455 281.122 -20.8565 284.094 -19.1763L289.312 -5.08517C291.444 -4.78926 296.388 -4.1046 299.111 -3.73325C302.515 -3.26906 306.848 -2.65016 304.681 2.14643C302.949 5.98369 294.16 19.115 289.982 25.201C281.214 49.1839 262.193 101.946 256.251 121.133Z" fill="url(#paint3_linear_1050_2)"/>
<path id="Rectangle 289" d="M166.31 178.167H235.116C235.116 181.979 232.025 185.07 228.213 185.07H173.212C169.4 185.07 166.31 181.979 166.31 178.167Z" fill="#B4B4B4"/>
<path id="Rectangle 288" d="M257.053 93.218C257.534 92.0642 258.662 91.3127 259.912 91.3127H376.112C378.322 91.3127 379.821 93.5614 378.971 95.6015L342.466 183.164C341.985 184.318 340.858 185.07 339.608 185.07H223.407C221.197 185.07 219.698 182.821 220.549 180.781L257.053 93.218Z" fill="url(#paint4_linear_1050_2)"/>
<path id="Vector 31" d="M64.8704 135.633L67.9559 111.343" stroke="#30235B" stroke-width="0.619401"/>
<path id="Vector 32" d="M207.764 131.631C207.301 128.78 206.514 121.889 207.069 117.134" stroke="#30235B" stroke-width="0.619401"/>
<path id="Vector 33" d="M206.925 122.451L204.271 117.072" stroke="#30235B" stroke-width="0.619401"/>
<path id="Vector 34" d="M205.986 174.269L197.368 163.392" stroke="#30235B" stroke-width="0.619401"/>
<path id="Vector 35" d="M213.614 174.807L200.164 157.352" stroke="#30235B" stroke-width="0.619401"/>
<path id="Vector 36" d="M220.685 176.407L203.967 152.319" stroke="#30235B" stroke-width="0.619401"/>
<path id="Vector 50" d="M230.578 85.9383L240.169 66.2715" stroke="#30235B" stroke-width="0.949425"/>
<path id="Vector 51" d="M150.429 144.283C147.241 155.044 149.101 167.199 150.429 171.932L159.294 170.675C157.446 156.574 158.524 147.857 159.294 145.262L150.429 144.283Z" fill="#30235B"/>
<rect id="Rectangle 295" x="146.917" y="139.674" width="16.7668" height="4.34698" rx="2.17349" transform="rotate(6.01694 146.917 139.674)" fill="url(#paint5_linear_1050_2)"/>
</g>
</g>
<defs>
<linearGradient id="paint0_linear_1050_2" x1="133.261" y1="-29.4367" x2="120.861" y2="218.901" gradientUnits="userSpaceOnUse">
<stop stop-color="#FF9F81"/>
<stop offset="1" stop-color="#F53838"/>
</linearGradient>
<linearGradient id="paint1_linear_1050_2" x1="133.127" y1="-96.6563" x2="130.91" y2="13.644" gradientUnits="userSpaceOnUse">
<stop stop-color="#FFEFE0"/>
<stop offset="1" stop-color="#FFBE99"/>
</linearGradient>
<linearGradient id="paint2_linear_1050_2" x1="113.622" y1="92.6351" x2="113.622" y2="176.501" gradientUnits="userSpaceOnUse">
<stop offset="0.0677966" stop-color="#FFEFE0"/>
<stop offset="1" stop-color="#FFBE99"/>
</linearGradient>
<linearGradient id="paint3_linear_1050_2" x1="230.507" y1="-30.4543" x2="311.893" y2="64.7937" gradientUnits="userSpaceOnUse">
<stop stop-color="#FFEFE0"/>
<stop offset="1" stop-color="#FFBE99"/>
</linearGradient>
<linearGradient id="paint4_linear_1050_2" x1="333.21" y1="20.948" x2="287.565" y2="210.293" gradientUnits="userSpaceOnUse">
<stop offset="0.0171777" stop-color="white"/>
<stop offset="1" stop-color="#D7D7D7"/>
</linearGradient>
<linearGradient id="paint5_linear_1050_2" x1="154.982" y1="138.824" x2="154.87" y2="144.092" gradientUnits="userSpaceOnUse">
<stop stop-color="#7F67CE"/>
<stop offset="1" stop-color="#30235B"/>
</linearGradient>
<clipPath id="clip0_1050_2">
<rect width="1440" height="1506" fill="white" transform="translate(-847 -375)"/>
</clipPath>
</defs>
</svg>
