<svg width="18" height="7" viewBox="0 0 18 7" fill="none" xmlns="http://www.w3.org/2000/svg">
<rect width="18" height="7" fill="#F6F6F6"/>
<g id="Landingpage" clip-path="url(#clip0_1050_2)">
<rect width="1440" height="1506" transform="translate(-993 -514)" fill="white"/>
<g id="Illustration 1">
<path id="Vector 28" d="M-99.747 -110.311C-88.5401 -118.093 -46.8436 -132.111 -27.3962 -138.147H-5.55286C7.41068 -134.934 36.5354 -127.209 49.3261 -122.024C62.1168 -116.839 85.436 -86.1335 94.7985 -71.8736L84.6115 -52.3665C58.6844 -26.7851 79.5744 -4.19987 93.4022 4.1544C72.6605 4.1544 63.7301 -3.62372 61.8575 -7.51277C63.9317 4.24083 65.6026 33.1063 66.1787 46.0699H-86.3589V22.5097H-144.538C-149.9 -36.1524 -113.756 -100.583 -99.747 -110.311Z" fill="url(#paint0_linear_1050_2)"/>
<path id="Vector 29" d="M-144.587 22.5848C-138.588 49.3209 -102.961 49.3753 -85.8981 46.0605L45.6277 27.0583C47.3232 28.5307 51.3835 32.4134 54.0607 36.1646C56.7379 39.9157 59.1919 37.2787 60.0843 35.4913C63.9394 39.6677 66.7772 37.6803 67.7142 36.1646C71.0338 40.3441 73.827 38.885 74.8086 37.633C79.4133 41.0598 80.5756 38.0819 80.5811 36.1646C74.2994 22.8622 63.0293 9.52897 58.1795 4.52518L25.3854 7.52746L-81.1704 -3.33623C-101.386 -17.5194 -152.086 -10.8354 -144.587 22.5848Z" fill="url(#paint1_linear_1050_2)"/>
<path id="Vector 51" d="M4.4292 5.28271C1.24077 16.0435 3.10069 28.1992 4.4292 32.9319L13.2944 31.6752C11.4462 17.5738 12.5243 8.85736 13.2944 6.26183L4.4292 5.28271Z" fill="#30235B"/>
<rect id="Rectangle 295" x="0.917236" y="0.674072" width="16.7668" height="4.34698" rx="2.17349" transform="rotate(6.01694 0.917236 0.674072)" fill="url(#paint2_linear_1050_2)"/>
</g>
</g>
<defs>
<linearGradient id="paint0_linear_1050_2" x1="-12.7393" y1="-168.437" x2="-25.1387" y2="79.9007" gradientUnits="userSpaceOnUse">
<stop stop-color="#FF9F81"/>
<stop offset="1" stop-color="#F53838"/>
</linearGradient>
<linearGradient id="paint1_linear_1050_2" x1="-32.3783" y1="-46.3649" x2="-32.3783" y2="37.5013" gradientUnits="userSpaceOnUse">
<stop offset="0.0677966" stop-color="#FFEFE0"/>
<stop offset="1" stop-color="#FFBE99"/>
</linearGradient>
<linearGradient id="paint2_linear_1050_2" x1="8.98189" y1="-0.175969" x2="8.87044" y2="5.09211" gradientUnits="userSpaceOnUse">
<stop stop-color="#7F67CE"/>
<stop offset="1" stop-color="#30235B"/>
</linearGradient>
<clipPath id="clip0_1050_2">
<rect width="1440" height="1506" fill="white" transform="translate(-993 -514)"/>
</clipPath>
</defs>
</svg>
