<svg width="90" height="165" viewBox="0 0 90 165" fill="none" xmlns="http://www.w3.org/2000/svg">
<rect width="90" height="165" fill="#F6F6F6"/>
<g id="Landingpage" clip-path="url(#clip0_1050_2)">
<rect width="1440" height="1506" transform="translate(-1063 -354)" fill="white"/>
<g id="Illustration 1">
<path id="Vector 28" d="M-169.747 49.6893C-158.54 41.9069 -116.844 27.8888 -97.3962 21.8525H-75.5529C-62.5893 25.0664 -33.4646 32.7906 -20.6739 37.976C-7.88319 43.1614 15.436 73.8665 24.7985 88.1264L14.6115 107.633C-11.3156 133.215 9.57439 155.8 23.4022 164.154C2.66051 164.154 -6.26994 156.376 -8.14247 152.487C-6.0683 164.241 -4.39745 193.106 -3.82129 206.07H-156.359V182.51H-214.538C-219.9 123.848 -183.756 59.4173 -169.747 49.6893Z" fill="url(#paint0_linear_1050_2)"/>
<path id="Vector 29" d="M-214.587 182.585C-208.588 209.321 -172.961 209.375 -155.898 206.06L-24.3723 187.058C-22.6768 188.531 -18.6165 192.413 -15.9393 196.165C-13.2621 199.916 -10.8081 197.279 -9.91571 195.491C-6.06061 199.668 -3.22284 197.68 -2.28584 196.165C1.03383 200.344 3.82698 198.885 4.80861 197.633C9.4133 201.06 10.5756 198.082 10.5811 196.165C4.29944 182.862 -6.97066 169.529 -11.8205 164.525L-44.6146 167.527L-151.17 156.664C-171.386 142.481 -222.086 149.165 -214.587 182.585Z" fill="url(#paint1_linear_1050_2)"/>
<path id="Vector 30" d="M40.2514 142.133C34.3098 161.319 26.1196 164.671 22.7672 163.949C-12.5193 140.337 2.63309 116.141 14.6201 106.995L45.8649 42.6637C41.3415 39.1264 36.3011 28.0595 36.818 21.0805C37.2316 15.4973 41.0399 15.3104 42.8924 15.9148C43.4093 10.1295 47.5881 10.3137 49.6129 11.1289C51.3706 4.82197 56.4627 6.17473 58.789 7.63948C59.0992 -1.04551 65.1218 0.143543 68.0943 1.82369L73.312 15.9148C75.4438 16.2107 80.388 16.8954 83.1113 17.2668C86.5153 17.7309 90.8477 18.3498 88.6815 23.1464C86.9485 26.9837 78.16 40.115 73.9823 46.201C65.2143 70.1839 46.193 122.946 40.2514 142.133Z" fill="url(#paint2_linear_1050_2)"/>
<path id="Rectangle 288" d="M41.0533 114.218C41.5343 113.064 42.6618 112.313 43.9119 112.313H160.112C162.322 112.313 163.821 114.561 162.971 116.601L126.466 204.164C125.985 205.318 124.858 206.07 123.608 206.07H7.40746C5.19725 206.07 3.69845 203.821 4.54892 201.781L41.0533 114.218Z" fill="url(#paint3_linear_1050_2)"/>
<path id="Vector 39" d="M42.8879 16.0195C43.3486 18.415 44.8514 24.0779 47.1769 27.5661" stroke="#30235B" stroke-width="0.619401"/>
<path id="Vector 40" d="M58.8179 7.69043C59.5223 10.1623 61.3561 15.7373 63.0557 18.2624" stroke="#30235B" stroke-width="0.619401"/>
<path id="Vector 41" d="M49.5198 11.282C50.3494 13.9729 52.4093 19.8889 54.0116 22.0256" stroke="#30235B" stroke-width="0.619401"/>
<path id="Vector 42" d="M73.2461 15.906L75.8102 23.4079" stroke="#30235B" stroke-width="0.619401"/>
<ellipse id="Ellipse 186" cx="87.9782" cy="161.423" rx="7.86131" ry="11.3813" transform="rotate(19.8998 87.9782 161.423)" fill="white"/>
<path id="Vector 50" d="M14.5776 106.938L24.1688 87.2715" stroke="#30235B" stroke-width="0.949425"/>
</g>
</g>
<defs>
<linearGradient id="paint0_linear_1050_2" x1="-82.7393" y1="-8.43671" x2="-95.1387" y2="239.901" gradientUnits="userSpaceOnUse">
<stop stop-color="#FF9F81"/>
<stop offset="1" stop-color="#F53838"/>
</linearGradient>
<linearGradient id="paint1_linear_1050_2" x1="-102.378" y1="113.635" x2="-102.378" y2="197.501" gradientUnits="userSpaceOnUse">
<stop offset="0.0677966" stop-color="#FFEFE0"/>
<stop offset="1" stop-color="#FFBE99"/>
</linearGradient>
<linearGradient id="paint2_linear_1050_2" x1="14.5071" y1="-9.4543" x2="95.8927" y2="85.7937" gradientUnits="userSpaceOnUse">
<stop stop-color="#FFEFE0"/>
<stop offset="1" stop-color="#FFBE99"/>
</linearGradient>
<linearGradient id="paint3_linear_1050_2" x1="117.21" y1="41.948" x2="71.5646" y2="231.293" gradientUnits="userSpaceOnUse">
<stop offset="0.0171777" stop-color="white"/>
<stop offset="1" stop-color="#D7D7D7"/>
</linearGradient>
<clipPath id="clip0_1050_2">
<rect width="1440" height="1506" fill="white" transform="translate(-1063 -354)"/>
</clipPath>
</defs>
</svg>
