<svg width="94" height="98" viewBox="0 0 94 98" fill="none" xmlns="http://www.w3.org/2000/svg">
<rect width="94" height="98" fill="#F6F6F6"/>
<g id="Landingpage" clip-path="url(#clip0_1050_2)">
<rect width="1440" height="1506" transform="translate(-935 -266)" fill="white"/>
<g id="Illustration 1">
<path id="Vector 27" d="M23.8904 126.45C27.2615 107.065 26.0738 89.1284 25.5471 82.9392C26.2845 77.145 56.9436 87.9974 71.6924 93.7916C63.3699 98.0055 61.1137 119.075 61.0259 129.083C61.2892 132.376 59.2349 139.355 48.9108 140.935C31.6335 142.937 25.0317 132.112 23.8904 126.45Z" fill="url(#paint0_linear_1050_2)"/>
<g id="Mask Group">
<mask id="mask0_1050_2" style="mask-type:alpha" maskUnits="userSpaceOnUse" x="23" y="81" width="49" height="61">
<path id="Vector 38" d="M23.8904 126.45C27.2615 107.065 26.0738 89.1284 25.5471 82.9392C26.2845 77.145 56.9436 87.9974 71.6924 93.7916C63.3699 98.0055 61.1137 119.075 61.0259 129.083C61.2892 132.376 59.2349 139.355 48.9108 140.935C31.6335 142.937 25.0317 132.112 23.8904 126.45Z" fill="#BABABA"/>
</mask>
<g mask="url(#mask0_1050_2)">
<path id="Vector 37" opacity="0.1" d="M66.589 113.902C45.8262 110.662 30.4325 92.4083 25.3311 83.6861C37.1816 81.2415 63.8279 77.8189 75.6082 83.6861C87.3886 89.5534 74.5039 106.275 66.589 113.902Z" fill="black"/>
</g>
</g>
<path id="Vector 17" d="M60.2637 97.3408C94.3659 95.8581 95.3405 49.2217 91.565 26.0888C29.9505 -26.1352 5.21145 14.8999 0.543701 41.9455C6.24111 61.0284 26.1615 98.8235 60.2637 97.3408Z" fill="url(#paint1_linear_1050_2)"/>
<path id="Vector 19" d="M16.245 -20.5251C6.43406 -23.6177 -14.0197 -25.164 -17.3469 -6.60842C-17.3469 5.38869 11.6061 2.34942 16.245 -20.5251Z" fill="#30235B"/>
<path id="Vector 26" d="M28.0577 41.0981L41.9534 53.0323L40.4452 59.9924L27.4854 48.6183L28.0577 41.0981Z" fill="#111111"/>
<path id="Vector 18" d="M13.9292 51.83C25.7909 61.8794 26.5596 77.5713 25.4613 84.1611C21.6173 83.1314 10.8814 76.4593 -1.30987 58.0079C-20.7497 18.3045 2.67146 -11.3907 16.812 -21.2754C54.7033 -43.3099 105.362 -9.1255 96.5072 17.0277C87.6521 43.1809 45.2991 37.1403 29.5797 27.1183C32.8745 37.003 29.8543 46.7504 27.9324 50.3885C20.5189 33.0903 -0.897905 39.2682 13.9292 51.83Z" fill="#30235B"/>
<path id="Vector 20" d="M39.3212 -26.3781C64.5531 -33.6255 79.9204 -20.5622 84.4501 -13.1246C79.3612 -15.8648 65.2577 -19.701 49.5549 -13.1246C24.7257 -1.7166 19.3013 22.6093 19.6927 33.3463L3.25171 32.1719V26.1324C4.76159 11.6487 14.0893 -19.1306 39.3212 -26.3781Z" fill="white"/>
<ellipse id="Ellipse 183" cx="9.98512" cy="48.0673" rx="19.2976" ry="23.6088" fill="white"/>
<ellipse id="Ellipse 187" cx="9.98512" cy="48.0673" rx="19.2976" ry="23.6088" fill="white"/>
<ellipse id="Ellipse 184" cx="9.98525" cy="48.0673" rx="9.21133" ry="11.2692" fill="#24C28A"/>
<path id="Vector 24" opacity="0.5" d="M94.3031 44.4645C87.1505 42.2537 79.4468 46.9667 76.489 49.5996C71.1109 54.7347 79.2661 67.7921 88.6947 61.7773C96.2375 56.9655 95.5765 48.2305 94.3031 44.4645Z" fill="#E6FCFF"/>
<path id="Subtract" fill-rule="evenodd" clip-rule="evenodd" d="M73.4585 48.0496C83.8038 38.4926 93.6152 40.1265 97.2277 42.138C99.3181 47.6734 97.2277 63.8487 85.6897 65.2827C76.4593 66.4299 73.2959 59.2937 72.868 55.5821C71.1135 54.165 69.9482 55.3865 69.5848 56.1745C69.8882 66.4895 61.5957 73.4674 52.6965 71.8493C45.577 70.5549 42.4777 63.4406 41.818 60.0453H40.3459V54.0097C49.6167 44.9321 62.4247 47.1571 67.6699 49.4043C69.0493 48.3205 72.1037 48.0496 73.4585 48.0496ZM93.76 45.1121C86.6074 42.9012 80.0717 46.6893 77.114 49.3221C71.7359 54.4572 78.7996 67.0376 88.669 61.7771C94.579 58.6271 95.0334 48.8781 93.76 45.1121ZM53.3146 51.8433C57.2205 50.5722 65.1847 49.7217 65.7949 56.4888C66.5576 64.9476 58.8615 71.1878 52.136 67.8597C47.2665 65.45 45.2718 60.5102 45.2718 57.3901C45.2718 54.8941 50.6337 52.6522 53.3146 51.8433Z" fill="#111111"/>
<path id="Vector 25" opacity="0.5" d="M65.8208 56.489C65.2106 49.7219 57.2463 50.5724 53.3405 51.8435C50.6595 52.6524 45.2976 54.8943 45.2976 57.3903C45.2976 60.5104 47.2923 65.4502 52.1618 67.8599C58.8873 71.188 66.5835 64.9478 65.8208 56.489Z" fill="#E6FCFF"/>
<path id="Vector 48" d="M6.08853 70.4834C0.71622 69.3552 -9.94111 62.3082 -8.97932 46.1182" stroke="#30235B" stroke-width="0.949425"/>
</g>
</g>
<defs>
<linearGradient id="paint0_linear_1050_2" x1="45.1266" y1="12.3437" x2="42.9095" y2="122.644" gradientUnits="userSpaceOnUse">
<stop stop-color="#FFEFE0"/>
<stop offset="1" stop-color="#FFBE99"/>
</linearGradient>
<linearGradient id="paint1_linear_1050_2" x1="46.8076" y1="0.927979" x2="46.8076" y2="97.3832" gradientUnits="userSpaceOnUse">
<stop stop-color="#FFEFE0"/>
<stop offset="1" stop-color="#FFBE99"/>
</linearGradient>
<clipPath id="clip0_1050_2">
<rect width="1440" height="1506" fill="white" transform="translate(-935 -266)"/>
</clipPath>
</defs>
</svg>
