<svg width="227" height="59" viewBox="0 0 227 59" fill="none" xmlns="http://www.w3.org/2000/svg">
<rect width="227" height="59" fill="#F6F6F6"/>
<g id="Landingpage" clip-path="url(#clip0_1050_2)">
<rect width="1440" height="1506" transform="translate(-847 -503)" fill="white"/>
<g id="Illustration 1">
<path id="Vector 28" d="M46.253 -99.3107C57.4599 -107.093 99.1564 -121.111 118.604 -127.147H140.447C153.411 -123.934 182.535 -116.209 195.326 -111.024C208.117 -105.839 231.436 -75.1335 240.799 -60.8736L230.611 -41.3665C204.684 -15.7851 225.574 6.80013 239.402 15.1544C218.661 15.1544 209.73 7.37628 207.858 3.48723C209.932 15.2408 211.603 44.1063 212.179 57.0699H59.6411V33.5097H1.46208C-3.89951 -25.1524 32.2445 -89.5827 46.253 -99.3107Z" fill="url(#paint0_linear_1050_2)"/>
<path id="Vector 29" d="M1.41271 33.5848C7.41201 60.3209 43.0385 60.3753 60.1019 57.0605L191.628 38.0583C193.323 39.5307 197.384 43.4134 200.061 47.1646C202.738 50.9157 205.192 48.2787 206.084 46.4913C209.939 50.6677 212.777 48.6803 213.714 47.1646C217.034 51.3441 219.827 49.885 220.809 48.633C225.413 52.0598 226.576 49.0819 226.581 47.1646C220.299 33.8622 209.029 20.529 204.18 15.5252L171.385 18.5275L64.8296 7.66377C44.6145 -6.51943 -6.08642 0.164607 1.41271 33.5848Z" fill="url(#paint1_linear_1050_2)"/>
<path id="Vector 30" d="M256.251 -6.86729C250.31 12.3191 242.12 15.6715 238.767 14.9494C203.481 -8.66296 218.633 -32.8588 230.62 -42.0052L261.865 -106.336C257.341 -109.874 252.301 -120.941 252.818 -127.92C253.232 -133.503 257.04 -133.69 258.892 -133.085C259.409 -138.87 263.588 -138.686 265.613 -137.871C267.371 -144.178 272.463 -142.825 274.789 -141.361C275.099 -150.046 281.122 -148.856 284.094 -147.176L289.312 -133.085C291.444 -132.789 296.388 -132.105 299.111 -131.733C302.515 -131.269 306.848 -130.65 304.681 -125.854C302.949 -122.016 294.16 -108.885 289.982 -102.799C281.214 -78.8161 262.193 -26.0537 256.251 -6.86729Z" fill="url(#paint2_linear_1050_2)"/>
<path id="Rectangle 289" d="M166.31 50.1672H235.116C235.116 53.9795 232.025 57.0699 228.213 57.0699H173.212C169.4 57.0699 166.31 53.9795 166.31 50.1672Z" fill="#B4B4B4"/>
<path id="Rectangle 288" d="M257.053 -34.782C257.534 -35.9358 258.662 -36.6873 259.912 -36.6873H376.112C378.322 -36.6873 379.821 -34.4386 378.971 -32.3985L342.466 55.1644C341.985 56.3182 340.858 57.0697 339.608 57.0697H223.407C221.197 57.0697 219.698 54.821 220.549 52.781L257.053 -34.782Z" fill="url(#paint3_linear_1050_2)"/>
<path id="Vector 31" d="M64.8704 7.63261L67.9559 -16.6567" stroke="#30235B" stroke-width="0.619401"/>
<path id="Vector 32" d="M207.764 3.63101C207.301 0.779822 206.514 -6.11118 207.069 -10.8657" stroke="#30235B" stroke-width="0.619401"/>
<path id="Vector 34" d="M205.986 46.2693L197.368 35.3916" stroke="#30235B" stroke-width="0.619401"/>
<path id="Vector 35" d="M213.614 46.8075L200.164 29.3518" stroke="#30235B" stroke-width="0.619401"/>
<path id="Vector 36" d="M220.685 48.4067L203.967 24.3186" stroke="#30235B" stroke-width="0.619401"/>
<path id="Vector 51" d="M150.429 16.2827C147.241 27.0435 149.101 39.1992 150.429 43.9319L159.294 42.6752C157.446 28.5738 158.524 19.8574 159.294 17.2618L150.429 16.2827Z" fill="#30235B"/>
<rect id="Rectangle 295" x="146.917" y="11.6741" width="16.7668" height="4.34698" rx="2.17349" transform="rotate(6.01694 146.917 11.6741)" fill="url(#paint4_linear_1050_2)"/>
</g>
</g>
<defs>
<linearGradient id="paint0_linear_1050_2" x1="133.261" y1="-157.437" x2="120.861" y2="90.9007" gradientUnits="userSpaceOnUse">
<stop stop-color="#FF9F81"/>
<stop offset="1" stop-color="#F53838"/>
</linearGradient>
<linearGradient id="paint1_linear_1050_2" x1="113.622" y1="-35.3649" x2="113.622" y2="48.5013" gradientUnits="userSpaceOnUse">
<stop offset="0.0677966" stop-color="#FFEFE0"/>
<stop offset="1" stop-color="#FFBE99"/>
</linearGradient>
<linearGradient id="paint2_linear_1050_2" x1="230.507" y1="-158.454" x2="311.893" y2="-63.2063" gradientUnits="userSpaceOnUse">
<stop stop-color="#FFEFE0"/>
<stop offset="1" stop-color="#FFBE99"/>
</linearGradient>
<linearGradient id="paint3_linear_1050_2" x1="333.21" y1="-107.052" x2="287.565" y2="82.2928" gradientUnits="userSpaceOnUse">
<stop offset="0.0171777" stop-color="white"/>
<stop offset="1" stop-color="#D7D7D7"/>
</linearGradient>
<linearGradient id="paint4_linear_1050_2" x1="154.982" y1="10.824" x2="154.87" y2="16.0921" gradientUnits="userSpaceOnUse">
<stop stop-color="#7F67CE"/>
<stop offset="1" stop-color="#30235B"/>
</linearGradient>
<clipPath id="clip0_1050_2">
<rect width="1440" height="1506" fill="white" transform="translate(-847 -503)"/>
</clipPath>
</defs>
</svg>
