<svg width="49" height="61" viewBox="0 0 49 61" fill="none" xmlns="http://www.w3.org/2000/svg">
<rect width="49" height="61" fill="#F6F6F6"/>
<g id="Landingpage" clip-path="url(#clip0_1050_2)">
<rect width="1440" height="1506" transform="translate(-958 -347)" fill="white"/>
<g id="Illustration 1">
<path id="Vector 28" d="M-64.747 56.6893C-53.5401 48.9069 -11.8436 34.8888 7.60383 28.8525H29.4471C42.4107 32.0664 71.5354 39.7906 84.3261 44.976C97.1168 50.1614 120.436 80.8665 129.799 95.1264L119.611 114.633C93.6844 140.215 114.574 162.8 128.402 171.154C107.661 171.154 98.7301 163.376 96.8575 159.487C98.9317 171.241 100.603 200.106 101.179 213.07H-51.3589V189.51H-109.538C-114.9 130.848 -78.7555 66.4173 -64.747 56.6893Z" fill="url(#paint0_linear_1050_2)"/>
<ellipse id="Ellipse 185" cx="20.1724" cy="47.3607" rx="25.9725" ry="18.5082" fill="#CF0606"/>
<path id="Vector 27" d="M0.890381 45.4497C4.26154 26.0655 3.07384 8.12845 2.54708 1.93922C3.28446 -3.85498 33.9436 6.99736 48.6924 12.7916C40.3699 17.0055 38.1137 38.0753 38.0259 48.0834C38.2892 51.3756 36.2349 58.355 25.9108 59.9352C8.63354 61.9368 2.03166 51.1122 0.890381 45.4497Z" fill="url(#paint1_linear_1050_2)"/>
<g id="Mask Group">
<mask id="mask0_1050_2" style="mask-type:alpha" maskUnits="userSpaceOnUse" x="0" y="0" width="49" height="61">
<path id="Vector 38" d="M0.890381 45.4497C4.26154 26.0655 3.07384 8.12845 2.54708 1.93922C3.28446 -3.85498 33.9436 6.99736 48.6924 12.7916C40.3699 17.0055 38.1137 38.0753 38.0259 48.0834C38.2892 51.3756 36.2349 58.355 25.9108 59.9352C8.63354 61.9368 2.03166 51.1122 0.890381 45.4497Z" fill="#BABABA"/>
</mask>
<g mask="url(#mask0_1050_2)">
<path id="Vector 37" opacity="0.1" d="M43.589 32.9021C22.8262 29.6625 7.43253 11.4083 2.33107 2.68615C14.1816 0.241459 40.8279 -3.18111 52.6082 2.68615C64.3886 8.55341 51.5039 25.2748 43.589 32.9021Z" fill="black"/>
</g>
</g>
<path id="Vector 17" d="M37.2637 16.3408C71.3659 14.8581 72.3405 -31.7783 68.565 -54.9112C6.95054 -107.135 -17.7886 -66.1001 -22.4563 -39.0545C-16.7589 -19.9716 3.1615 17.8235 37.2637 16.3408Z" fill="url(#paint2_linear_1050_2)"/>
<path id="Vector 18" d="M-9.0708 -29.17C2.79088 -19.1206 3.55964 -3.42869 2.46131 3.1611C-1.38272 2.13144 -12.1186 -4.54073 -24.3099 -22.9921C-43.7497 -62.6955 -20.3285 -92.3907 -6.18797 -102.275C31.7033 -124.31 82.3622 -90.1255 73.5072 -63.9723C64.6521 -37.8191 22.2991 -43.8597 6.57972 -53.8817C9.87445 -43.997 6.8543 -34.2496 4.93238 -30.6115C-2.48112 -47.9097 -23.8979 -41.7318 -9.0708 -29.17Z" fill="#30235B"/>
</g>
</g>
<defs>
<linearGradient id="paint0_linear_1050_2" x1="22.2607" y1="-1.43671" x2="9.86128" y2="246.901" gradientUnits="userSpaceOnUse">
<stop stop-color="#FF9F81"/>
<stop offset="1" stop-color="#F53838"/>
</linearGradient>
<linearGradient id="paint1_linear_1050_2" x1="22.1266" y1="-68.6563" x2="19.9095" y2="41.644" gradientUnits="userSpaceOnUse">
<stop stop-color="#FFEFE0"/>
<stop offset="1" stop-color="#FFBE99"/>
</linearGradient>
<linearGradient id="paint2_linear_1050_2" x1="23.8076" y1="-80.072" x2="23.8076" y2="16.3832" gradientUnits="userSpaceOnUse">
<stop stop-color="#FFEFE0"/>
<stop offset="1" stop-color="#FFBE99"/>
</linearGradient>
<clipPath id="clip0_1050_2">
<rect width="1440" height="1506" fill="white" transform="translate(-958 -347)"/>
</clipPath>
</defs>
</svg>
