<svg width="35" height="24" viewBox="0 0 35 24" fill="none" xmlns="http://www.w3.org/2000/svg">
<rect width="35" height="24" fill="#F6F6F6"/>
<g id="Landingpage" clip-path="url(#clip0_1050_2)">
<rect width="1440" height="1506" transform="translate(-917 -243)" fill="white"/>
<g id="Illustration 1">
<path id="Vector 17" d="M78.2637 120.341C112.366 118.858 113.34 72.2217 109.565 49.0888C47.9505 -3.13516 23.2114 37.8999 18.5437 64.9455C24.2411 84.0284 44.1615 121.824 78.2637 120.341Z" fill="url(#paint0_linear_1050_2)"/>
<path id="Vector 19" d="M34.245 2.47486C24.4341 -0.617718 3.98034 -2.16399 0.653076 16.3916C0.653076 28.3887 29.6061 25.3494 34.245 2.47486Z" fill="#30235B"/>
<path id="Vector 18" d="M31.9292 74.83C43.7909 84.8794 44.5596 100.571 43.4613 107.161C39.6173 106.131 28.8814 99.4593 16.6901 81.0079C-2.74972 41.3045 20.6715 11.6093 34.812 1.72464C72.7033 -20.3099 123.362 13.8745 114.507 40.0277C105.652 66.1809 63.2991 60.1403 47.5797 50.1183C50.8745 60.003 47.8543 69.7504 45.9324 73.3885C38.5189 56.0903 17.1021 62.2682 31.9292 74.83Z" fill="#30235B"/>
<path id="Vector 20" d="M57.3212 -3.37809C82.5531 -10.6255 97.9204 2.43778 102.45 9.87537C97.3612 7.13521 83.2577 3.29898 67.5549 9.87537C42.7257 21.2834 37.3013 45.6093 37.6927 56.3463L21.2517 55.1719V49.1324C22.7616 34.6487 32.0893 3.86936 57.3212 -3.37809Z" fill="white"/>
</g>
</g>
<defs>
<linearGradient id="paint0_linear_1050_2" x1="64.8076" y1="23.928" x2="64.8076" y2="120.383" gradientUnits="userSpaceOnUse">
<stop stop-color="#FFEFE0"/>
<stop offset="1" stop-color="#FFBE99"/>
</linearGradient>
<clipPath id="clip0_1050_2">
<rect width="1440" height="1506" fill="white" transform="translate(-917 -243)"/>
</clipPath>
</defs>
</svg>
