<svg width="107" height="114" viewBox="0 0 107 114" fill="none" xmlns="http://www.w3.org/2000/svg">
<rect width="107" height="114" fill="#F6F6F6"/>
<g id="Landingpage" clip-path="url(#clip0_1050_2)">
<rect width="1440" height="1506" transform="translate(-926 -237)" fill="white"/>
<g id="Illustration 1">
<path id="Vector 27" d="M32.8904 155.45C36.2615 136.065 35.0738 118.128 34.5471 111.939C35.2845 106.145 65.9436 116.997 80.6924 122.792C72.3699 127.006 70.1137 148.075 70.0259 158.083C70.2892 161.376 68.2349 168.355 57.9108 169.935C40.6335 171.937 34.0317 161.112 32.8904 155.45Z" fill="url(#paint0_linear_1050_2)"/>
<g id="Mask Group">
<mask id="mask0_1050_2" style="mask-type:alpha" maskUnits="userSpaceOnUse" x="32" y="110" width="49" height="61">
<path id="Vector 38" d="M32.8904 155.45C36.2615 136.065 35.0738 118.128 34.5471 111.939C35.2845 106.145 65.9436 116.997 80.6924 122.792C72.3699 127.006 70.1137 148.075 70.0259 158.083C70.2892 161.376 68.2349 168.355 57.9108 169.935C40.6335 171.937 34.0317 161.112 32.8904 155.45Z" fill="#BABABA"/>
</mask>
<g mask="url(#mask0_1050_2)">
<path id="Vector 37" opacity="0.1" d="M75.589 142.902C54.8262 139.662 39.4325 121.408 34.3311 112.686C46.1816 110.241 72.8279 106.819 84.6082 112.686C96.3886 118.553 83.5039 135.275 75.589 142.902Z" fill="black"/>
</g>
</g>
<path id="Vector 17" d="M69.2637 126.341C103.366 124.858 104.34 78.2217 100.565 55.0888C38.9505 2.86484 14.2114 43.8999 9.5437 70.9455C15.2411 90.0284 35.1615 127.824 69.2637 126.341Z" fill="url(#paint1_linear_1050_2)"/>
<path id="Vector 19" d="M25.245 8.47486C15.4341 5.38228 -5.01966 3.83601 -8.34692 22.3916C-8.34692 34.3887 20.6061 31.3494 25.245 8.47486Z" fill="#30235B"/>
<path id="Vector 26" d="M37.0577 70.0981L50.9534 82.0323L49.4452 88.9924L36.4854 77.6183L37.0577 70.0981Z" fill="#111111"/>
<path id="Vector 18" d="M22.9292 80.83C34.7909 90.8794 35.5596 106.571 34.4613 113.161C30.6173 112.131 19.8814 105.459 7.69013 87.0079C-11.7497 47.3045 11.6715 17.6093 25.812 7.72464C63.7033 -14.3099 114.362 19.8745 105.507 46.0277C96.6521 72.1809 54.2991 66.1403 38.5797 56.1183C41.8745 66.003 38.8543 75.7504 36.9324 79.3885C29.5189 62.0903 8.1021 68.2682 22.9292 80.83Z" fill="#30235B"/>
<path id="Vector 20" d="M48.3212 2.62191C73.5531 -4.62555 88.9204 8.43778 93.4501 15.8754C88.3612 13.1352 74.2577 9.29898 58.5549 15.8754C33.7257 27.2834 28.3013 51.6093 28.6927 62.3463L12.2517 61.1719V55.1324C13.7616 40.6487 23.0893 9.86936 48.3212 2.62191Z" fill="white"/>
<ellipse id="Ellipse 183" cx="18.9851" cy="77.0673" rx="19.2976" ry="23.6088" fill="white"/>
<ellipse id="Ellipse 187" cx="18.9851" cy="77.0673" rx="19.2976" ry="23.6088" fill="white"/>
<ellipse id="Ellipse 184" cx="18.9853" cy="77.0673" rx="9.21133" ry="11.2692" fill="#24C28A"/>
<path id="Vector 24" opacity="0.5" d="M103.303 73.4645C96.1505 71.2537 88.4468 75.9667 85.489 78.5996C80.1109 83.7347 88.2661 96.7921 97.6947 90.7773C105.238 85.9655 104.577 77.2305 103.303 73.4645Z" fill="#E6FCFF"/>
<path id="Subtract" fill-rule="evenodd" clip-rule="evenodd" d="M82.4585 77.0496C92.8038 67.4926 102.615 69.1265 106.228 71.138C108.318 76.6734 106.228 92.8487 94.6897 94.2827C85.4593 95.4299 82.2959 88.2937 81.868 84.5821C80.1135 83.165 78.9482 84.3865 78.5848 85.1745C78.8882 95.4895 70.5957 102.467 61.6965 100.849C54.577 99.5549 51.4777 92.4406 50.818 89.0453H49.3459V83.0097C58.6167 73.9321 71.4247 76.1571 76.6699 78.4043C78.0493 77.3205 81.1037 77.0496 82.4585 77.0496ZM102.76 74.1121C95.6074 71.9012 89.0717 75.6893 86.114 78.3221C80.7359 83.4572 87.7996 96.0376 97.669 90.7771C103.579 87.6271 104.033 77.8781 102.76 74.1121ZM62.3146 80.8433C66.2205 79.5722 74.1847 78.7217 74.7949 85.4888C75.5576 93.9476 67.8615 100.188 61.136 96.8597C56.2665 94.45 54.2718 89.5102 54.2718 86.3901C54.2718 83.8941 59.6337 81.6522 62.3146 80.8433Z" fill="#111111"/>
<path id="Vector 25" opacity="0.5" d="M74.8208 85.489C74.2106 78.7219 66.2463 79.5724 62.3405 80.8435C59.6595 81.6524 54.2976 83.8943 54.2976 86.3903C54.2976 89.5104 56.2923 94.4502 61.1618 96.8599C67.8873 100.188 75.5835 93.9478 74.8208 85.489Z" fill="#E6FCFF"/>
<path id="Vector 48" d="M15.0885 99.4834C9.71622 98.3552 -0.941114 91.3082 0.0206834 75.1182" stroke="#30235B" stroke-width="0.949425"/>
<path id="Vector 49" d="M90.7804 12.6571C87.8554 8.31543 80.9446 1.89834 67.0146 1.24023" stroke="#30235B" stroke-width="0.949425"/>
</g>
</g>
<defs>
<linearGradient id="paint0_linear_1050_2" x1="54.1266" y1="41.3437" x2="51.9095" y2="151.644" gradientUnits="userSpaceOnUse">
<stop stop-color="#FFEFE0"/>
<stop offset="1" stop-color="#FFBE99"/>
</linearGradient>
<linearGradient id="paint1_linear_1050_2" x1="55.8076" y1="29.928" x2="55.8076" y2="126.383" gradientUnits="userSpaceOnUse">
<stop stop-color="#FFEFE0"/>
<stop offset="1" stop-color="#FFBE99"/>
</linearGradient>
<clipPath id="clip0_1050_2">
<rect width="1440" height="1506" fill="white" transform="translate(-926 -237)"/>
</clipPath>
</defs>
</svg>
