<svg width="82" height="63" viewBox="0 0 82 63" fill="none" xmlns="http://www.w3.org/2000/svg">
<rect width="82" height="63" fill="#F6F6F6"/>
<g id="Landingpage" clip-path="url(#clip0_1050_2)">
<rect width="1440" height="1506" transform="translate(-938 -237)" fill="white"/>
<g id="Illustration 1">
<path id="Vector 17" d="M57.2637 126.341C91.3659 124.858 92.3405 78.2217 88.565 55.0888C26.9505 2.86484 2.21145 43.8999 -2.4563 70.9455C3.24111 90.0284 23.1615 127.824 57.2637 126.341Z" fill="url(#paint0_linear_1050_2)"/>
<path id="Vector 19" d="M13.245 8.47486C3.43406 5.38228 -17.0197 3.83601 -20.3469 22.3916C-20.3469 34.3887 8.60612 31.3494 13.245 8.47486Z" fill="#30235B"/>
<path id="Vector 18" d="M10.9292 80.83C22.7909 90.8794 23.5596 106.571 22.4613 113.161C18.6173 112.131 7.88139 105.459 -4.30987 87.0079C-23.7497 47.3045 -0.328542 17.6093 13.812 7.72464C51.7033 -14.3099 102.362 19.8745 93.5072 46.0277C84.6521 72.1809 42.2991 66.1403 26.5797 56.1183C29.8745 66.003 26.8543 75.7504 24.9324 79.3885C17.5189 62.0903 -3.8979 68.2682 10.9292 80.83Z" fill="#30235B"/>
<path id="Vector 20" d="M36.3212 2.62191C61.5531 -4.62555 76.9204 8.43778 81.4501 15.8754C76.3612 13.1352 62.2577 9.29898 46.5549 15.8754C21.7257 27.2834 16.3013 51.6093 16.6927 62.3463L0.251709 61.1719V55.1324C1.76159 40.6487 11.0893 9.86936 36.3212 2.62191Z" fill="white"/>
<ellipse id="Ellipse 183" cx="6.98512" cy="77.0673" rx="19.2976" ry="23.6088" fill="white"/>
<ellipse id="Ellipse 187" cx="6.98512" cy="77.0673" rx="19.2976" ry="23.6088" fill="white"/>
<path id="Vector 49" d="M78.7804 12.6571C75.8554 8.31543 68.9446 1.89834 55.0146 1.24023" stroke="#30235B" stroke-width="0.949425"/>
</g>
</g>
<defs>
<linearGradient id="paint0_linear_1050_2" x1="43.8076" y1="29.928" x2="43.8076" y2="126.383" gradientUnits="userSpaceOnUse">
<stop stop-color="#FFEFE0"/>
<stop offset="1" stop-color="#FFBE99"/>
</linearGradient>
<clipPath id="clip0_1050_2">
<rect width="1440" height="1506" fill="white" transform="translate(-938 -237)"/>
</clipPath>
</defs>
</svg>
