<svg width="21" height="19" viewBox="0 0 21 19" fill="none" xmlns="http://www.w3.org/2000/svg">
<rect width="21" height="19" fill="#F6F6F6"/>
<g id="Landingpage" clip-path="url(#clip0_1050_2)">
<rect width="1440" height="1506" transform="translate(-980 -316)" fill="white"/>
<g id="Illustration 1">
<path id="Vector 17" d="M15.2637 47.3408C49.3659 45.8581 50.3405 -0.778324 46.565 -23.9112C-15.0495 -76.1352 -39.7886 -35.1001 -44.4563 -8.05453C-38.7589 11.0284 -18.8385 48.8235 15.2637 47.3408Z" fill="url(#paint0_linear_1050_2)"/>
<path id="Vector 18" d="M-31.0708 1.82997C-19.2091 11.8794 -18.4404 27.5713 -19.5387 34.1611C-23.3827 33.1314 -34.1186 26.4593 -46.3099 8.00788C-65.7497 -31.6955 -42.3285 -61.3907 -28.188 -71.2754C9.70326 -93.3099 60.3622 -59.1255 51.5072 -32.9723C42.6521 -6.81911 0.299091 -12.8597 -15.4203 -22.8817C-12.1255 -12.997 -15.1457 -3.24964 -17.0676 0.388458C-24.4811 -16.9097 -45.8979 -10.7318 -31.0708 1.82997Z" fill="#30235B"/>
<path id="Subtract" fill-rule="evenodd" clip-rule="evenodd" d="M28.4585 -1.95043C38.8038 -11.5074 48.6152 -9.87354 52.2277 -7.86196C54.3181 -2.32661 52.2277 13.8487 40.6897 15.2827C31.4593 16.4299 28.2959 9.29366 27.868 5.58212C26.1135 4.16499 24.9482 5.38654 24.5848 6.17446C24.8882 16.4895 16.5957 23.4674 7.69645 21.8493C0.577033 20.5549 -2.52228 13.4406 -3.18201 10.0453H-4.65405V4.00967C4.61667 -5.06791 17.4247 -2.84289 22.6699 -0.595688C24.0493 -1.67947 27.1037 -1.95042 28.4585 -1.95043ZM48.76 -4.88792C41.6074 -7.09876 35.0717 -3.31074 32.114 -0.677862C26.7359 4.45722 33.7996 17.0376 43.669 11.7771C49.579 8.62707 50.0334 -1.12191 48.76 -4.88792ZM8.31464 1.84334C12.2205 0.57221 20.1847 -0.27829 20.7949 6.48878C21.5576 14.9476 13.8615 21.1878 7.13597 17.8597C2.26646 15.45 0.271767 10.5102 0.271767 7.39013C0.271767 4.89407 5.63368 2.65225 8.31464 1.84334Z" fill="#111111"/>
<path id="Vector 25" opacity="0.5" d="M20.8208 6.48898C20.2106 -0.278092 12.2463 0.572408 8.34048 1.84354C5.65952 2.65245 0.297607 4.89427 0.297607 7.39032C0.297607 10.5104 2.2923 15.4502 7.16181 17.8599C13.8873 21.188 21.5835 14.9478 20.8208 6.48898Z" fill="#E6FCFF"/>
</g>
</g>
<defs>
<linearGradient id="paint0_linear_1050_2" x1="1.80759" y1="-49.072" x2="1.80759" y2="47.3832" gradientUnits="userSpaceOnUse">
<stop stop-color="#FFEFE0"/>
<stop offset="1" stop-color="#FFBE99"/>
</linearGradient>
<clipPath id="clip0_1050_2">
<rect width="1440" height="1506" fill="white" transform="translate(-980 -316)"/>
</clipPath>
</defs>
</svg>
